<svg width="96" height="96" viewBox="0 0 96 96" fill="none" xmlns="http://www.w3.org/2000/svg">
<circle cx="48" cy="48" r="48" fill="#277CFB"/>
<g clip-path="url(#clip0_1_297)">
<path d="M28.6455 51.761V63.4839H30.1939V51.7634C30.8009 51.6054 31.3397 51.2772 31.7423 50.8204C32.3098 51.4645 33.1412 51.871 34.0649 51.871C34.9885 51.871 35.82 51.4645 36.3874 50.8204C36.9549 51.4645 37.7864 51.871 38.71 51.871C39.6336 51.871 40.4651 51.4645 41.0326 50.8204C41.6001 51.4645 42.4316 51.871 43.3552 51.871C44.2788 51.871 45.1103 51.4645 45.6778 50.8204C46.2452 51.4645 47.0767 51.871 48.0003 51.871C48.924 51.871 49.7554 51.4645 50.3229 50.8204C50.8904 51.4645 51.7219 51.871 52.6455 51.871C53.5691 51.871 54.4006 51.4645 54.9681 50.8204C55.5356 51.4645 56.3671 51.871 57.2907 51.871C58.2143 51.871 59.0458 51.4645 59.6132 50.8204C60.1807 51.4645 61.0122 51.871 61.9358 51.871C62.8594 51.871 63.6909 51.4645 64.2584 50.8204C64.661 51.2772 65.1998 51.6062 65.8068 51.7634V63.4839H67.3552V51.761C68.6868 51.415 69.6778 50.2134 69.6778 48.7742V46.3262L64.8166 31.7419H57.7838C56.7309 27.3105 52.7492 24 48.0003 24C43.2514 24 39.2698 27.3105 38.2169 31.7419H31.1841L26.3229 46.3262V48.7742C26.3229 50.2134 27.3139 51.415 28.6455 51.761ZM29.4197 50.3226C28.5658 50.3226 27.8713 49.6281 27.8713 48.7742V47.2258H30.9681V48.7742C30.9681 49.6281 30.2736 50.3226 29.4197 50.3226ZM44.1294 34.8387C43.2754 34.8387 42.581 34.1443 42.581 33.2903C42.581 32.1329 43.5503 30.1935 44.1294 30.1935C44.7085 30.1935 45.6778 32.1329 45.6778 33.2903C45.6778 34.1443 44.9833 34.8387 44.1294 34.8387ZM45.0561 43.6877L44.9454 45.6774H41.8974L42.2698 42.3275C43.1144 42.9151 44.0504 43.3788 45.0561 43.6877ZM53.7309 42.3275L54.1033 45.6774H51.0553L50.9446 43.6877C51.9503 43.3788 52.8863 42.9151 53.7309 42.3275ZM60.269 45.6774L58.2042 33.2903H60.5407L63.2938 45.6774H60.269ZM58.6997 45.6774H55.661L55.1562 41.1314C56.1131 40.1628 56.868 38.9985 57.372 37.7086L58.6997 45.6774ZM49.4125 44.0183L49.5046 45.6774H46.4961L46.5882 44.0183C47.0512 44.0834 47.5196 44.129 48.0003 44.129C48.4811 44.129 48.9495 44.0834 49.4125 44.0183ZM40.3397 45.6774H37.301L38.6287 37.7094C39.132 38.9992 39.8876 40.1628 40.8445 41.1321L40.3397 45.6774ZM35.7317 45.6774H32.7069L35.46 33.2903H37.7965L35.7317 45.6774ZM34.0649 50.3226C33.2109 50.3226 32.5165 49.6281 32.5165 48.7742V47.2258H35.6132V48.7742C35.6132 49.6281 34.9188 50.3226 34.0649 50.3226ZM38.71 50.3226C37.8561 50.3226 37.1616 49.6281 37.1616 48.7742V47.2258H40.2584V48.7742C40.2584 49.6281 39.564 50.3226 38.71 50.3226ZM43.3552 50.3226C42.5012 50.3226 41.8068 49.6281 41.8068 48.7742V47.2258H44.9036V48.7742C44.9036 49.6281 44.2091 50.3226 43.3552 50.3226ZM48.0003 50.3226C47.1464 50.3226 46.452 49.6281 46.452 48.7742V47.2258H49.5487V48.7742C49.5487 49.6281 48.8543 50.3226 48.0003 50.3226ZM52.6455 50.3226C51.7916 50.3226 51.0971 49.6281 51.0971 48.7742V47.2258H54.1939V48.7742C54.1939 49.6281 53.4994 50.3226 52.6455 50.3226ZM57.2907 50.3226C56.4367 50.3226 55.7423 49.6281 55.7423 48.7742V47.2258H58.8391V48.7742C58.8391 49.6281 58.1446 50.3226 57.2907 50.3226ZM61.9358 50.3226C61.0819 50.3226 60.3874 49.6281 60.3874 48.7742V47.2258H63.4842V48.7742C63.4842 49.6281 62.7898 50.3226 61.9358 50.3226ZM66.581 50.3226C65.7271 50.3226 65.0326 49.6281 65.0326 48.7742V47.2258H68.1294V48.7742C68.1294 49.6281 67.4349 50.3226 66.581 50.3226ZM67.8298 45.6774H64.8793L62.1263 33.2903H63.7002L67.8298 45.6774ZM48.0003 25.5484C52.6958 25.5484 56.5165 29.369 56.5165 34.0645C56.5165 37.0467 54.9727 39.6712 52.6455 41.1933V36.2772C53.9771 35.9311 54.9681 34.7295 54.9681 33.2903V29.4194H53.4197V33.2903C53.4197 33.8609 53.1061 34.3548 52.6455 34.6235V29.4194H51.0971V34.6235C50.6365 34.3548 50.3229 33.8609 50.3229 33.2903V29.4194H48.7745V33.2903C48.7745 34.7295 49.7655 35.9311 51.0971 36.2772V41.9892C50.1356 42.3662 49.0935 42.5806 48.0003 42.5806C46.9072 42.5806 45.8651 42.3662 44.9036 41.9892V36.2772C46.2352 35.9311 47.2261 34.7295 47.2261 33.2903C47.2261 31.6947 46.02 28.6452 44.1294 28.6452C42.2388 28.6452 41.0326 31.6947 41.0326 33.2903C41.0326 34.7295 42.0236 35.9311 43.3552 36.2772V41.1933C41.028 39.6712 39.4842 37.0467 39.4842 34.0645C39.4842 29.369 43.3049 25.5484 48.0003 25.5484ZM32.3005 33.2903H33.8744L31.1214 45.6774H28.1709L32.3005 33.2903Z" fill="white"/>
<path d="M45.6776 61.9355H44.1292V63.4839H45.6776V61.9355Z" fill="white"/>
<path d="M32.516 60.3871H38.7095V54.1936H32.516V60.3871ZM34.0644 55.742H37.1611V58.8388H34.0644V55.742Z" fill="white"/>
<path d="M57.2903 60.3871H63.4838V54.1936H57.2903V60.3871ZM58.8387 55.742H61.9354V58.8388H58.8387V55.742Z" fill="white"/>
<path d="M70.4516 68.9032V70.4516H58.0645V68.9032H56.5161V70.4516H54.9677V53.4193H41.0323V70.4516H39.4839V68.9032H37.9355V70.4516H25.5484V68.9032H24V72H38.7097H39.4839H56.5161H57.2903H72V68.9032H70.4516ZM42.5806 54.9677H53.4194V70.4516H42.5806V54.9677Z" fill="white"/>
<path d="M71.9999 68.9032H56.516V67.3548C56.516 65.7693 57.7137 64.4586 59.2512 64.279C59.838 63.2446 60.9637 62.599 62.2078 62.7228C63.3358 61.7125 65.1792 61.7125 66.3072 62.7228C67.5529 62.6028 68.6778 63.2454 69.2639 64.279C70.8022 64.4586 71.9999 65.7693 71.9999 67.3548V68.9032Z" fill="white"/>
<path d="M39.4839 68.9032H24V67.3548C24 65.7693 25.1977 64.4586 26.7352 64.279C27.3221 63.2446 28.4477 62.599 29.6919 62.7228C30.8199 61.7125 32.6632 61.7125 33.7912 62.7228C35.0369 62.6028 36.1618 63.2454 36.7479 64.279C38.2862 64.4586 39.4839 65.7693 39.4839 67.3548V68.9032Z" fill="white"/>
<circle cx="48" cy="34" r="9" fill="#277CFB"/>
</g>
<defs>
<clipPath id="clip0_1_297">
<rect width="48" height="48" fill="white" transform="translate(24 24)"/>
</clipPath>
</defs>
</svg>
