<svg width="96" height="96" viewBox="0 0 96 96" fill="none" xmlns="http://www.w3.org/2000/svg">
<circle cx="48" cy="48" r="48" fill="#277CFB"/>
<g clip-path="url(#clip0_1_280)">
<path d="M48.0001 24C37.5869 24 29.1153 32.4716 29.1153 42.8848C29.1153 48.699 31.7559 53.9079 35.9021 57.3749V69.5422C35.9021 71.2838 37.6661 72.4671 39.2736 71.821L48.0001 68.3175L56.7266 71.821C58.3381 72.4684 60.0981 71.2798 60.0981 69.5422V57.3749C64.2444 53.9079 66.8849 48.699 66.8849 42.8848C66.8849 32.4716 58.4133 24 48.0001 24V24ZM57.287 69.0165L48.9156 65.6554C48.3252 65.4183 47.675 65.4183 47.0846 65.6554L38.7132 69.0165V59.3239C44.4655 62.587 51.5367 62.5858 57.2869 59.3239V69.0165H57.287ZM55.0803 57.313C44.4684 62.5422 31.9264 54.7836 31.9264 42.8848C31.9264 34.0215 39.1368 26.8111 48.0001 26.8111C56.8634 26.8111 64.0738 34.0215 64.0738 42.8848C64.0738 49.1724 60.4352 54.6768 55.0803 57.313Z" fill="white"/>
<path d="M48.0002 30.1506C40.9791 30.1506 35.267 35.8637 35.267 42.8848C35.267 48.0497 38.3582 52.5071 42.7885 54.502C51.1609 58.2718 60.7334 52.1216 60.7334 42.8848C60.7334 35.8637 55.0213 30.1506 48.0002 30.1506ZM48.0002 52.8069C42.529 52.8069 38.0781 48.356 38.0781 42.8848C38.0781 37.4135 42.529 32.9616 48.0002 32.9616C53.4715 32.9616 57.9223 37.4134 57.9223 42.8847C57.9223 48.3559 53.4715 52.8069 48.0002 52.8069Z" fill="white"/>
<path d="M53.5086 39.2369L51.361 38.3552L49.9499 36.6583C48.9419 35.444 47.0777 35.4383 46.0603 36.6451L44.6201 38.3552L42.4837 39.2398C41.0031 39.8533 40.4565 41.6668 41.348 42.9963L42.5371 44.7673L42.658 47.0602C42.7426 48.7066 44.3521 49.8295 45.9226 49.355L47.9906 48.73C50.2488 49.4066 50.3332 49.4646 50.8148 49.4646C52.1287 49.4646 53.2807 48.4323 53.3438 47.0396L53.445 44.7673L54.6416 43.0104C55.5507 41.6781 54.9992 39.8477 53.5086 39.2369ZM50.5504 46.5627C47.6308 45.688 48.3404 45.6884 45.4465 46.5627C45.2821 43.4574 45.5447 44.2051 43.8694 41.7089C46.7098 40.5327 46.016 41.0608 47.9989 38.7085C49.9106 41.0088 49.2161 40.5135 52.1275 41.7089C50.4611 44.1527 50.6903 43.424 50.5504 46.5627Z" fill="white"/>
</g>
<defs>
<clipPath id="clip0_1_280">
<rect width="48" height="48" fill="white" transform="translate(24 24)"/>
</clipPath>
</defs>
</svg>
