<svg width="96" height="96" viewBox="0 0 96 96" fill="none" xmlns="http://www.w3.org/2000/svg">
<circle cx="48" cy="48" r="48" fill="#277CFB"/>
<g clip-path="url(#clip0_1_287)">
<path d="M71.25 33.75H69.5857L68.5117 29.4532C68.2605 28.4513 67.3628 27.75 66.3285 27.75H61.5C60.2595 27.75 59.25 28.7595 59.25 30C59.25 31.2405 60.2595 32.25 61.5 32.25H63C64.2405 32.25 65.25 31.2405 65.25 30V29.25H66.3285C66.6727 29.25 66.9728 29.484 67.056 29.8177L68.0393 33.75H63C62.3647 33.75 61.7925 34.017 61.383 34.4423C60.9165 34.0177 60.3022 33.7515 59.6227 33.7515L50.916 33.7508C51.8918 32.7968 52.5 31.4685 52.5 30C52.5 27.1058 50.145 24.75 47.25 24.75C44.355 24.75 42 27.1058 42 30C42 31.6747 42.7913 33.165 44.016 34.1273C42.5385 34.641 41.2822 35.655 40.4685 36.9877C39.1388 34.1512 36.2655 32.25 33 32.25C28.4513 32.25 24.75 35.9513 24.75 40.5C24.75 42.3075 25.3357 44.0205 26.4023 45.4395C25.4205 46.0013 24.75 47.0467 24.75 48.2565C24.75 49.6845 25.665 50.9078 27 51.3413V51.36C27 52.7663 27.5738 54.0592 28.5 55.0117V55.86C28.5 57.2663 29.0738 58.5592 30 59.5117V60C30 62.379 31.5923 64.3913 33.7665 65.0332C33.7642 65.106 33.75 65.1772 33.75 65.25C33.75 68.5583 36.4418 71.25 39.75 71.25C43.0583 71.25 45.75 68.5583 45.75 65.25H57.75C57.75 68.5583 60.4417 71.25 63.75 71.25C67.0583 71.25 69.75 68.5583 69.75 65.25H71.25V63.9533C71.25 62.2515 70.6883 60.6818 69.75 59.4053V46.743C69.75 44.592 68.8148 42.6112 67.2735 41.25H71.25V33.75ZM63.75 30C63.75 30.414 63.4132 30.75 63 30.75H61.5C61.0868 30.75 60.75 30.414 60.75 30C60.75 29.586 61.0868 29.25 61.5 29.25H63.75V30ZM62.25 36C62.25 35.586 62.5868 35.25 63 35.25H66.75V39.75H64.6215H63C62.5868 39.75 62.25 39.414 62.25 39V36ZM56.6572 60.5085L56.5365 60.75H54.336C54.7118 60.1043 54.8415 59.3558 54.6833 58.62L52.9417 50.4923C52.419 48.0555 50.4105 46.2068 48 45.825L49.245 39.6022C49.314 39.2535 49.6222 39 49.9755 39L59.6333 38.9993C60.0338 38.9993 60.4095 38.901 60.7493 38.739V39C60.7493 39.5782 60.975 40.101 61.3343 40.5C60.9743 40.899 60.7493 41.4217 60.7493 42V56.787C59.0018 57.465 57.5317 58.7588 56.6572 60.5085ZM43.5 30C43.5 27.9323 45.1823 26.25 47.25 26.25C49.3177 26.25 51 27.9323 51 30C51 32.0677 49.3177 33.75 47.25 33.75C45.1823 33.75 43.5 32.0677 43.5 30ZM46.2292 35.25L59.6227 35.2515C60.2445 35.2515 60.7493 35.757 60.7493 36.3787C60.7493 36.9967 60.249 37.4993 59.6325 37.4993L49.9755 37.5C48.9097 37.5 47.9835 38.2605 47.7735 39.3075L46.185 47.2477L47.0955 47.2523C49.1933 47.2628 51.0345 48.7575 51.4748 50.8065L53.2163 58.935C53.301 59.3265 53.2275 59.7285 53.01 60.0645C52.7917 60.4012 52.455 60.6338 52.065 60.717C51.2527 60.8865 50.4525 60.3532 50.2837 59.5642L48.5422 51.4342C48.393 50.748 47.7765 50.25 47.0753 50.25H45.2917C44.811 49.6763 44.1653 49.245 43.4085 49.0387L39.9923 48.1073C39.7612 47.5185 39.6907 46.8892 39.8085 46.2623L41.07 39.5325C41.535 37.0507 43.7048 35.25 46.2292 35.25ZM49.116 60.6615C48.3135 60.4395 47.6723 59.7878 47.5028 58.941L46.0988 51.921C46.0868 51.8625 46.0665 51.8078 46.0522 51.75H47.0753L48.8167 59.8785C48.8768 60.1583 48.984 60.4178 49.116 60.6615ZM38.2568 46.851C38.2553 47.1187 38.277 47.3865 38.319 47.6505L37.4835 47.4225C37.7535 47.2485 38.01 47.0557 38.2568 46.851ZM26.25 40.5C26.25 36.7778 29.2785 33.75 33 33.75C36.2303 33.75 38.9872 36.0225 39.615 39.1718C39.609 39.2002 39.6008 39.2273 39.5955 39.2557L38.6798 44.142C37.8818 45.3833 36.7005 46.3282 35.3235 46.8337L29.022 45.1155C28.7408 45.039 28.4527 45 28.1648 45H28.0065C27.9983 45 27.99 45.0023 27.9818 45.0023C26.8665 43.7625 26.25 42.1807 26.25 40.5ZM39.75 69.75C37.2682 69.75 35.25 67.7318 35.25 65.25H36.75C36.75 66.9045 38.0955 68.25 39.75 68.25C41.4045 68.25 42.75 66.9045 42.75 65.25H44.25C44.25 67.7318 42.2318 69.75 39.75 69.75ZM41.25 65.25C41.25 66.0773 40.5773 66.75 39.75 66.75C38.9227 66.75 38.25 66.0773 38.25 65.25H41.25ZM35.25 63.75C33.3953 63.75 31.8615 62.3925 31.563 60.6217C32.1037 60.873 32.6925 61.0387 33.3142 61.0905L37.1348 61.4093L37.2593 59.9153L33.4388 59.5965C31.5938 59.442 30.1462 57.9292 30.024 56.1045C30.5752 56.3662 31.1775 56.538 31.8142 56.5905L36.6877 56.997L36.8123 55.503L31.9388 55.0965C30.1335 54.9458 28.7107 53.493 28.5352 51.72L35.0812 53.2305L35.4188 51.7688L27.6112 49.9673C26.8103 49.7828 26.25 49.0785 26.25 48.2565C26.25 47.2882 27.0375 46.5 28.0065 46.5H28.1648C28.32 46.5 28.4753 46.521 28.6267 46.5623L43.014 50.4855C43.842 50.7113 44.46 51.3742 44.6287 52.215L46.0328 59.235C46.3815 60.9825 47.928 62.25 49.7092 62.25H57.4635L57.999 61.179C59.0565 59.064 61.1828 57.75 63.5467 57.75C66.8993 57.75 69.639 60.423 69.7463 63.75H35.25ZM65.25 65.25C65.25 66.0773 64.5773 66.75 63.75 66.75C62.9227 66.75 62.25 66.0773 62.25 65.25H65.25ZM63.75 69.75C61.2682 69.75 59.25 67.7318 59.25 65.25H60.75C60.75 66.9045 62.0955 68.25 63.75 68.25C65.4045 68.25 66.75 66.9045 66.75 65.25H68.25C68.25 67.7318 66.2318 69.75 63.75 69.75ZM68.25 46.743V52.476C67.4048 52.3582 66.75 51.6383 66.75 50.7615V46.7393C66.75 45.951 67.2803 45.2917 68.0003 45.0788C68.1585 45.6097 68.25 46.1677 68.25 46.743ZM67.3807 43.7078C66.141 44.163 65.25 45.3442 65.25 46.7385V50.7607C65.25 52.4648 66.5775 53.8507 68.25 53.9753V57.8655C66.9473 56.8575 65.3182 56.25 63.5467 56.25C63.105 56.25 62.6745 56.2987 62.25 56.37V42C62.25 41.586 62.5868 41.25 63 41.25H64.3747C65.6625 41.7083 66.6997 42.5947 67.3807 43.7078ZM69.75 39.75H68.25V35.25H69.75V39.75Z" fill="white"/>
<path d="M42.0338 54.9193L43.4888 54.5548L44.9916 60.5538L43.5366 60.9183L42.0338 54.9193Z" fill="white"/>
<path d="M41.2638 51.9281L42.7192 51.565L43.0936 53.0655L41.6382 53.4286L41.2638 51.9281Z" fill="white"/>
<path d="M33 42.75C32.5868 42.75 32.25 42.414 32.25 42H30.75C30.75 42.9765 31.3792 43.8015 32.25 44.112V45.75H33.75V44.25H35.25V42C35.25 40.7595 34.2405 39.75 33 39.75C32.5868 39.75 32.25 39.414 32.25 39V38.25H33C33.4132 38.25 33.75 38.586 33.75 39H35.25C35.25 38.0235 34.6207 37.1985 33.75 36.888V35.25H32.25V36.75H30.75V39C30.75 40.2405 31.7595 41.25 33 41.25C33.4132 41.25 33.75 41.586 33.75 42V42.75H33Z" fill="white"/>
<path d="M36.75 39.75H38.25V41.25H36.75V39.75Z" fill="white"/>
<path d="M27.75 39.75H29.25V41.25H27.75V39.75Z" fill="white"/>
<ellipse cx="33" cy="40" rx="3" ry="6" fill="#277CFB"/>
</g>
<defs>
<clipPath id="clip0_1_287">
<rect width="48" height="48" fill="white" transform="translate(24 24)"/>
</clipPath>
</defs>
</svg>
